<svg preserveAspectRatio="none" overflow="visible" style="display: block;" width="13" height="13" viewBox="0 0 13 13" fill="none" xmlns="http://www.w3.org/2000/svg">
<g id="icon">
<path id="Vector" d="M2.16667 10.8333H10.8333C11.1207 10.8333 11.3962 10.7192 11.5994 10.516C11.8025 10.3129 11.9167 10.0373 11.9167 9.75V4.875C11.9167 4.58768 11.8025 4.31213 11.5994 4.10897C11.3962 3.9058 11.1207 3.79167 10.8333 3.79167H6.71667C6.54848 3.79167 6.38261 3.75251 6.23219 3.6773C6.08176 3.60208 5.95091 3.49288 5.85 3.35833L5.2 2.6C5.09909 2.46545 4.96824 2.35625 4.81781 2.28104C4.66739 2.20582 4.50152 2.16667 4.33333 2.16667H2.16667C1.87935 2.16667 1.6038 2.2808 1.40063 2.48397C1.19747 2.68713 1.08333 2.96268 1.08333 3.25V9.75C1.08333 10.0373 1.19747 10.3129 1.40063 10.516C1.6038 10.7192 1.87935 10.8333 2.16667 10.8333Z" stroke="#646F7D" stroke-width="0.920833" stroke-linejoin="round"/>
</g>
</svg>
